<mxfile host="app.diagrams.net" agent="Mozilla/5.0 (Windows NT 10.0; Win64; x64) AppleWebKit/537.36 (KHTML, like Gecko) Chrome/131.0.0.0 Safari/537.36" version="25.0.1">
  <diagram name="PÃ¡gina-1" id="SaTYuk7RannozF4oxME4">
    <mxGraphModel dx="1912" dy="1040" grid="1" gridSize="10" guides="1" tooltips="1" connect="1" arrows="1" fold="1" page="1" pageScale="1" pageWidth="1169" pageHeight="827" math="0" shadow="0">
      <root>
        <mxCell id="0" />
        <mxCell id="1" parent="0" />
        <mxCell id="XmgeX4suexEOH4yGqU10-8" style="edgeStyle=orthogonalEdgeStyle;rounded=0;orthogonalLoop=1;jettySize=auto;html=1;exitX=0.5;exitY=1;exitDx=0;exitDy=0;exitPerimeter=0;entryX=0.5;entryY=0;entryDx=0;entryDy=0;" edge="1" parent="1" source="XmgeX4suexEOH4yGqU10-1" target="XmgeX4suexEOH4yGqU10-4">
          <mxGeometry relative="1" as="geometry" />
        </mxCell>
        <mxCell id="XmgeX4suexEOH4yGqU10-1" value="INICIO" style="strokeWidth=2;html=1;shape=mxgraph.flowchart.start_1;whiteSpace=wrap;fillColor=#fff2cc;strokeColor=#d6b656;" vertex="1" parent="1">
          <mxGeometry x="520" y="40" width="130" height="70" as="geometry" />
        </mxCell>
        <mxCell id="XmgeX4suexEOH4yGqU10-2" value="FIM" style="strokeWidth=2;html=1;shape=mxgraph.flowchart.start_1;whiteSpace=wrap;fillColor=#f8cecc;strokeColor=#b85450;" vertex="1" parent="1">
          <mxGeometry x="520" y="430" width="130" height="70" as="geometry" />
        </mxCell>
        <mxCell id="XmgeX4suexEOH4yGqU10-9" style="edgeStyle=orthogonalEdgeStyle;rounded=0;orthogonalLoop=1;jettySize=auto;html=1;exitX=0.5;exitY=1;exitDx=0;exitDy=0;entryX=0.5;entryY=0;entryDx=0;entryDy=0;" edge="1" parent="1" source="XmgeX4suexEOH4yGqU10-4" target="XmgeX4suexEOH4yGqU10-5">
          <mxGeometry relative="1" as="geometry" />
        </mxCell>
        <mxCell id="XmgeX4suexEOH4yGqU10-4" value="NOME" style="html=1;strokeWidth=2;shape=manualInput;whiteSpace=wrap;rounded=1;size=26;arcSize=11;fillColor=#dae8fc;strokeColor=#6c8ebf;" vertex="1" parent="1">
          <mxGeometry x="535" y="150" width="100" height="50" as="geometry" />
        </mxCell>
        <mxCell id="XmgeX4suexEOH4yGqU10-5" value="SOBRENOME" style="html=1;strokeWidth=2;shape=manualInput;whiteSpace=wrap;rounded=1;size=26;arcSize=11;fillColor=#dae8fc;strokeColor=#6c8ebf;" vertex="1" parent="1">
          <mxGeometry x="535" y="230" width="100" height="60" as="geometry" />
        </mxCell>
        <mxCell id="XmgeX4suexEOH4yGqU10-11" style="edgeStyle=orthogonalEdgeStyle;rounded=0;orthogonalLoop=1;jettySize=auto;html=1;exitX=0.5;exitY=1;exitDx=0;exitDy=0;exitPerimeter=0;" edge="1" parent="1" source="XmgeX4suexEOH4yGqU10-6" target="XmgeX4suexEOH4yGqU10-2">
          <mxGeometry relative="1" as="geometry" />
        </mxCell>
        <mxCell id="XmgeX4suexEOH4yGqU10-6" value="NOME&lt;div&gt;SOBRENOME&lt;/div&gt;" style="strokeWidth=2;html=1;shape=mxgraph.flowchart.display;whiteSpace=wrap;fillColor=#ffe6cc;strokeColor=#d79b00;" vertex="1" parent="1">
          <mxGeometry x="535" y="320" width="100" height="60" as="geometry" />
        </mxCell>
        <mxCell id="XmgeX4suexEOH4yGqU10-7" value="FERRAMENTA UNIVERSAL" style="text;html=1;align=left;verticalAlign=middle;whiteSpace=wrap;rounded=0;fontSize=15;" vertex="1" parent="1">
          <mxGeometry x="870" y="100" width="240" height="30" as="geometry" />
        </mxCell>
        <mxCell id="XmgeX4suexEOH4yGqU10-10" style="edgeStyle=orthogonalEdgeStyle;rounded=0;orthogonalLoop=1;jettySize=auto;html=1;exitX=0.5;exitY=1;exitDx=0;exitDy=0;entryX=0.5;entryY=0;entryDx=0;entryDy=0;entryPerimeter=0;" edge="1" parent="1" source="XmgeX4suexEOH4yGqU10-5" target="XmgeX4suexEOH4yGqU10-6">
          <mxGeometry relative="1" as="geometry" />
        </mxCell>
      </root>
    </mxGraphModel>
  </diagram>
</mxfile>
